ffmpeg started on 2016-12-07 at 23:44:02
Report written to "Output/x264/results/ffmpeg/crowd_run_2160p50slower4000k.log"
Command line:
Tools/ffmpeg/ffmpeg -benchmark -y -i Input/y4m/crowd_run_2160p50.y4m -c:v libx264 -preset slower -b:v 4000k -an Output/x264/encoded/crowd_run_2160p50slower4000k.mkv
ffmpeg version N-82227-gdb23fde Copyright (c) 2000-2016 the FFmpeg developers
  built with gcc 5.4.0 (Ubuntu 5.4.0-6ubuntu1~16.04.2) 20160609
  configuration: --prefix=/home/jaroslav/ffmpeg_build --pkg-config-flags=--static --extra-cflags=-I/home/jaroslav/ffmpeg_build/include --extra-ldflags=-L/home/jaroslav/ffmpeg_build/lib --bindir=/home/jaroslav/bin --enable-gpl --enable-libass --enable-libfdk-aac --enable-libfreetype --enable-libmp3lame --enable-libopus --enable-libtheora --enable-libvorbis --enable-libvpx --enable-libx264 --enable-libx265 --enable-nvenc --enable-libmfx --enable-libxvid --enable-libgsm --enable-libopencore-amrnb --enable-version3 --enable-nonfree
  libavutil      55. 35.100 / 55. 35.100
  libavcodec     57. 66.101 / 57. 66.101
  libavformat    57. 57.100 / 57. 57.100
  libavdevice    57.  2.100 / 57.  2.100
  libavfilter     6. 66.100 /  6. 66.100
  libswscale      4.  3.100 /  4.  3.100
  libswresample   2.  4.100 /  2.  4.100
  libpostproc    54.  2.100 / 54.  2.100
Input #0, yuv4mpegpipe, from 'Input/y4m/crowd_run_2160p50.y4m':
  Duration: 00:00:10.00, start: 0.000000, bitrate: 4976642 kb/s
    Stream #0:0: Video: rawvideo (I420 / 0x30323449), yuv420p(progressive), 3840x2160, SAR 1:1 DAR 16:9, 50 fps, 50 tbr, 50 tbn, 50 tbc
[libx264 @ 0x36341c0] using SAR=1/1
[libx264 @ 0x36341c0] DPB size (8 frames, 259200 mbs) > level limit (5 frames, 184320 mbs)
[libx264 @ 0x36341c0] using cpu capabilities: MMX2 SSE2Fast SSSE3 SSE4.2 AVX FMA3 AVX2 LZCNT BMI2
[libx264 @ 0x36341c0] profile High, level 5.2
[libx264 @ 0x36341c0] 264 - core 148 - H.264/MPEG-4 AVC codec - Copyleft 2003-2016 - http://www.videolan.org/x264.html - options: cabac=1 ref=8 deblock=1:0:0 analyse=0x3:0x133 me=umh subme=9 psy=1 psy_rd=1.00:0.00 mixed_ref=1 me_range=16 chroma_me=1 trellis=2 8x8dct=1 cqm=0 deadzone=21,11 fast_pskip=1 chroma_qp_offset=-2 threads=6 lookahead_threads=1 sliced_threads=0 nr=0 decimate=1 interlaced=0 bluray_compat=0 constrained_intra=0 bframes=3 b_pyramid=2 b_adapt=2 b_bias=0 direct=3 weightb=1 open_gop=0 weightp=2 keyint=250 keyint_min=25 scenecut=40 intra_refresh=0 rc_lookahead=60 rc=abr mbtree=1 bitrate=4000 ratetol=1.0 qcomp=0.60 qpmin=0 qpmax=69 qpstep=4 ip_ratio=1.40 aq=1:1.00
Output #0, matroska, to 'Output/x264/encoded/crowd_run_2160p50slower4000k.mkv':
  Metadata:
    encoder         : Lavf57.57.100
    Stream #0:0: Video: h264 (libx264) (H264 / 0x34363248), yuv420p, 3840x2160 [SAR 1:1 DAR 16:9], q=-1--1, 4000 kb/s, 50 fps, 1k tbn, 50 tbc
    Metadata:
      encoder         : Lavc57.66.101 libx264
    Side data:
      cpb: bitrate max/min/avg: 0/0/4000000 buffer size: 0 vbv_delay: -1
Stream mapping:
  Stream #0:0 -> #0:0 (rawvideo (native) -> h264 (libx264))
Press [q] to stop, [?] for help
frame=   19 fps=0.0 q=0.0 size=       0kB time=00:00:00.00 bitrate=N/A speed=   0x    frame=   29 fps= 22 q=0.0 size=       0kB time=00:00:00.00 bitrate=N/A speed=   0x    frame=   37 fps= 20 q=0.0 size=       0kB time=00:00:00.00 bitrate=N/A speed=   0x    frame=   45 fps= 19 q=0.0 size=       0kB time=00:00:00.00 bitrate=N/A speed=   0x    frame=   55 fps= 19 q=0.0 size=       0kB time=00:00:00.00 bitrate=N/A speed=   0x    frame=   65 fps= 19 q=0.0 size=       0kB time=00:00:00.00 bitrate=N/A speed=   0x    frame=   67 fps= 10 q=0.0 size=       0kB time=00:00:00.00 bitrate=N/A speed=   0x    frame=   72 fps= 10 q=42.0 size=       1kB time=-00:00:00.01 bitrate=N/A speed=N/A    frame=   74 fps=9.5 q=45.0 size=       1kB time=00:00:00.02 bitrate= 280.4kbits/s speed=0.00271x    frame=   76 fps=9.1 q=59.0 size=       1kB time=00:00:00.06 bitrate=  96.5kbits/s speed=0.00728x    frame=   81 fps=8.7 q=58.0 size=       1kB time=00:00:00.16 bitrate=  36.6kbits/s speed=0.0173x    frame=   83 fps=8.1 q=58.0 size=       1kB time=00:00:00.20 bitrate=  29.3kbits/s speed=0.0197x    frame=   86 fps=7.9 q=57.0 size=       1kB time=00:00:00.26 bitrate=  22.6kbits/s speed=0.024x    frame=   90 fps=7.6 q=57.0 size=       1kB time=00:00:00.34 bitrate=  17.3kbits/s speed=0.0287x    frame=   91 fps=7.3 q=57.0 size=       1kB time=00:00:00.36 bitrate=  16.3kbits/s speed=0.029x    frame=   95 fps=7.2 q=57.0 size=       1kB time=00:00:00.44 bitrate=  13.4kbits/s speed=0.0333x    frame=   98 fps=7.1 q=57.0 size=       1kB time=00:00:00.50 bitrate=  11.8kbits/s speed=0.0362x    frame=   99 fps=6.8 q=57.0 size=       1kB time=00:00:00.52 bitrate=  11.3kbits/s speed=0.0358x    frame=  103 fps=6.8 q=56.0 size=       1kB time=00:00:00.60 bitrate=   9.8kbits/s speed=0.0396x    frame=  105 fps=6.6 q=56.0 size=       1kB time=00:00:00.64 bitrate=   9.2kbits/s speed=0.0404x    frame=  107 fps=6.5 q=56.0 size=       1kB time=00:00:00.68 bitrate=   8.6kbits/s speed=0.0416x    frame=  110 fps=6.4 q=56.0 size=       1kB time=00:00:00.74 bitrate=   7.9kbits/s speed=0.0433x    frame=  113 fps=6.4 q=56.0 size=       1kB time=00:00:00.80 bitrate=   7.4kbits/s speed=0.0451x    frame=  115 fps=6.2 q=56.0 size=       1kB time=00:00:00.84 bitrate=   7.0kbits/s speed=0.0453x    frame=  119 fps=6.2 q=56.0 size=       1kB time=00:00:00.92 bitrate=   6.4kbits/s speed=0.0479x    frame=  121 fps=6.0 q=56.0 size=       1kB time=00:00:00.96 bitrate=   6.1kbits/s speed=0.0475x    frame=  126 fps=6.1 q=56.0 size=       1kB time=00:00:01.06 bitrate=   5.5kbits/s speed=0.051x    frame=  127 fps=5.9 q=56.0 size=       1kB time=00:00:01.08 bitrate=   5.4kbits/s speed=0.0499x    frame=  131 fps=5.9 q=56.0 size=       1kB time=00:00:01.16 bitrate=   5.1kbits/s speed=0.0522x    frame=  133 fps=5.8 q=55.0 size=       1kB time=00:00:01.20 bitrate=   4.9kbits/s speed=0.0522x    frame=  135 fps=5.7 q=55.0 size=       1kB time=00:00:01.24 bitrate=   4.7kbits/s speed=0.0522x    frame=  139 fps=5.6 q=55.0 size=       1kB time=00:00:01.32 bitrate=   4.5kbits/s speed=0.0537x    frame=  142 fps=5.6 q=55.0 size=       1kB time=00:00:01.38 bitrate=   4.3kbits/s speed=0.0546x    frame=  143 fps=5.5 q=55.0 size=       1kB time=00:00:01.40 bitrate=   4.2kbits/s speed=0.054x    frame=  148 fps=5.6 q=55.0 size=       1kB time=00:00:01.50 bitrate=   3.9kbits/s speed=0.0564x    frame=  150 fps=5.4 q=55.0 size=       1kB time=00:00:01.54 bitrate=   3.8kbits/s speed=0.0559x    frame=  152 fps=5.4 q=55.0 size=       1kB time=00:00:01.58 bitrate=   3.7kbits/s speed=0.056x    frame=  156 fps=5.4 q=55.0 size=       1kB time=00:00:01.66 bitrate=   3.5kbits/s speed=0.0576x    frame=  157 fps=5.3 q=55.0 size=       1kB time=00:00:01.68 bitrate=   3.5kbits/s speed=0.0572x    frame=  159 fps=5.3 q=55.0 size=       1kB time=00:00:01.72 bitrate=   3.4kbits/s speed=0.0571x    frame=  163 fps=5.3 q=55.0 size=       1kB time=00:00:01.80 bitrate=   3.3kbits/s speed=0.0581x    frame=  166 fps=5.2 q=55.0 size=       1kB time=00:00:01.86 bitrate=   3.2kbits/s speed=0.0586x    frame=  168 fps=5.2 q=54.0 size=       1kB time=00:00:01.90 bitrate=   3.1kbits/s speed=0.0587x    frame=  171 fps=5.2 q=55.0 size=       1kB time=00:00:01.96 bitrate=   3.0kbits/s speed=0.0593x    frame=  173 fps=5.1 q=54.0 size=       1kB time=00:00:02.00 bitrate=   2.9kbits/s speed=0.0594x    frame=  177 fps=5.1 q=54.0 size=       1kB time=00:00:02.08 bitrate=   2.8kbits/s speed=0.0605x    frame=  178 fps=5.0 q=54.0 size=       1kB time=00:00:02.10 bitrate=   2.8kbits/s speed=0.0596x    frame=  184 fps=5.0 q=54.0 size=       1kB time=00:00:02.22 bitrate=   2.7kbits/s speed=0.0605x    frame=  188 fps=5.0 q=54.0 size=       1kB time=00:00:02.30 bitrate=   2.6kbits/s speed=0.0616x    frame=  191 fps=5.0 q=54.0 size=       1kB time=00:00:02.36 bitrate=   2.5kbits/s speed=0.0617x    frame=  192 fps=4.9 q=54.0 size=       1kB time=00:00:02.38 bitrate=   2.5kbits/s speed=0.0613x    frame=  196 fps=4.9 q=54.0 size=       1kB time=00:00:02.46 bitrate=   2.4kbits/s speed=0.062x    frame=  199 fps=4.9 q=54.0 size=       1kB time=00:00:02.52 bitrate=   2.3kbits/s speed=0.0625x    frame=  201 fps=4.9 q=54.0 size=       1kB time=00:00:02.56 bitrate=   2.3kbits/s speed=0.0626x    frame=  204 fps=4.9 q=54.0 size=       1kB time=00:00:02.62 bitrate=   2.2kbits/s speed=0.063x    frame=  206 fps=4.9 q=54.0 size=       1kB time=00:00:02.66 bitrate=   2.2kbits/s speed=0.0631x    frame=  207 fps=4.9 q=54.0 size=       1kB time=00:00:02.68 bitrate=   2.2kbits/s speed=0.0628x    frame=  211 fps=4.8 q=54.0 size=       1kB time=00:00:02.76 bitrate=   2.1kbits/s speed=0.0632x    frame=  215 fps=4.8 q=54.0 size=       1kB time=00:00:02.84 bitrate=   2.1kbits/s speed=0.0638x    frame=  217 fps=4.8 q=54.0 size=       1kB time=00:00:02.88 bitrate=   2.0kbits/s speed=0.0638x    frame=  218 fps=4.8 q=54.0 size=       1kB time=00:00:02.90 bitrate=   2.0kbits/s speed=0.0635x    frame=  222 fps=4.8 q=54.0 size=       1kB time=00:00:02.98 bitrate=   2.0kbits/s speed=0.0643x    frame=  224 fps=4.8 q=54.0 size=       1kB time=00:00:03.02 bitrate=   1.9kbits/s speed=0.0642x    frame=  226 fps=4.7 q=54.0 size=       1kB time=00:00:03.06 bitrate=   1.9kbits/s speed=0.0641x    frame=  229 fps=4.7 q=54.0 size=       1kB time=00:00:03.12 bitrate=   1.9kbits/s speed=0.0645x    frame=  232 fps=4.7 q=54.0 size=       1kB time=00:00:03.18 bitrate=   1.9kbits/s speed=0.0649x    frame=  233 fps=4.7 q=54.0 size=       1kB time=00:00:03.20 bitrate=   1.8kbits/s speed=0.0645x    frame=  237 fps=4.7 q=54.0 size=       1kB time=00:00:03.28 bitrate=   1.8kbits/s speed=0.0653x    frame=  239 fps=4.7 q=54.0 size=       1kB time=00:00:03.32 bitrate=   1.8kbits/s speed=0.0651x    frame=  241 fps=4.7 q=54.0 size=       1kB time=00:00:03.36 bitrate=   1.8kbits/s speed=0.065x    frame=  245 fps=4.7 q=54.0 size=       1kB time=00:00:03.44 bitrate=   1.7kbits/s speed=0.0653x    frame=  249 fps=4.7 q=54.0 size=       1kB time=00:00:03.52 bitrate=   1.7kbits/s speed=0.0658x    frame=  251 fps=4.6 q=54.0 size=       1kB time=00:00:03.56 bitrate=   1.7kbits/s speed=0.0657x    frame=  253 fps=4.6 q=54.0 size=       1kB time=00:00:03.60 bitrate=   1.6kbits/s speed=0.0656x    frame=  256 fps=4.6 q=54.0 size=       1kB time=00:00:03.66 bitrate=   1.6kbits/s speed=0.0659x    frame=  259 fps=4.6 q=54.0 size=       1kB time=00:00:03.72 bitrate=   1.6kbits/s speed=0.0663x    frame=  260 fps=4.6 q=54.0 size=       1kB time=00:00:03.74 bitrate=   1.6kbits/s speed=0.0661x    frame=  263 fps=4.6 q=54.0 size=       1kB time=00:00:03.80 bitrate=   1.5kbits/s speed=0.0661x    frame=  266 fps=4.6 q=54.0 size=       1kB time=00:00:03.86 bitrate=   1.5kbits/s speed=0.0665x    frame=  268 fps=4.6 q=54.0 size=       1kB time=00:00:03.90 bitrate=   1.5kbits/s speed=0.0664x    frame=  271 fps=4.5 q=54.0 size=       1kB time=00:00:03.96 bitrate=   1.5kbits/s speed=0.0665x    frame=  275 fps=4.5 q=54.0 size=       1kB time=00:00:04.04 bitrate=   1.5kbits/s speed=0.0666x    frame=  278 fps=4.5 q=54.0 size=       1kB time=00:00:04.10 bitrate=   1.4kbits/s speed=0.0669x    frame=  281 fps=4.5 q=54.0 size=       1kB time=00:00:04.16 bitrate=   1.4kbits/s speed=0.067x    frame=  282 fps=4.5 q=54.0 size=       1kB time=00:00:04.18 bitrate=   1.4kbits/s speed=0.0666x    frame=  286 fps=4.5 q=54.0 size=       1kB time=00:00:04.26 bitrate=   1.4kbits/s speed=0.067x    frame=  288 fps=4.5 q=54.0 size=       1kB time=00:00:04.30 bitrate=   1.4kbits/s speed=0.067x    frame=  290 fps=4.5 q=54.0 size=       1kB time=00:00:04.34 bitrate=   1.4kbits/s speed=0.067x    frame=  294 fps=4.5 q=54.0 size=       1kB time=00:00:04.42 bitrate=   1.3kbits/s speed=0.067x    frame=  298 fps=4.5 q=54.0 size=       1kB time=00:00:04.50 bitrate=   1.3kbits/s speed=0.0676x    frame=  300 fps=4.4 q=54.0 size=       1kB time=00:00:04.54 bitrate=   1.3kbits/s speed=0.0673x    frame=  301 fps=4.4 q=54.0 size=       1kB time=00:00:04.56 bitrate=   1.3kbits/s speed=0.0671x    frame=  305 fps=4.4 q=54.0 size=       1kB time=00:00:04.64 bitrate=   1.3kbits/s speed=0.0675x    frame=  308 fps=4.4 q=54.0 size=       1kB time=00:00:04.70 bitrate=   1.3kbits/s speed=0.0677x    frame=  309 fps=4.4 q=54.0 size=       1kB time=00:00:04.72 bitrate=   1.2kbits/s speed=0.0673x    frame=  312 fps=4.4 q=54.0 size=       1kB time=00:00:04.78 bitrate=   1.2kbits/s speed=0.0676x    frame=  314 fps=4.4 q=54.0 size=       1kB time=00:00:04.82 bitrate=   1.2kbits/s speed=0.0676x    frame=  317 fps=4.4 q=54.0 size=       1kB time=00:00:04.88 bitrate=   1.2kbits/s speed=0.0677x    frame=  320 fps=4.4 q=54.0 size=       1kB time=00:00:04.94 bitrate=   1.2kbits/s speed=0.0678x    frame=  326 fps=4.4 q=54.0 size=    2500kB time=00:00:05.06 bitrate=4046.3kbits/s speed=0.0688x    frame=  329 fps=4.4 q=54.0 size=    2500kB time=00:00:05.12 bitrate=3998.9kbits/s speed=0.0692x    frame=  331 fps=4.4 q=54.0 size=    2500kB time=00:00:05.16 bitrate=3967.9kbits/s speed=0.069x    frame=  334 fps=4.4 q=54.0 size=    2500kB time=00:00:05.22 bitrate=3922.3kbits/s speed=0.0691x    frame=  337 fps=4.4 q=54.0 size=    2500kB time=00:00:05.28 bitrate=3877.7kbits/s speed=0.0694x    frame=  339 fps=4.4 q=54.0 size=    2500kB time=00:00:05.32 bitrate=3848.6kbits/s speed=0.0694x    frame=  341 fps=4.4 q=54.0 size=    2500kB time=00:00:05.36 bitrate=3819.9kbits/s speed=0.069x    frame=  345 fps=4.4 q=54.0 size=    2500kB time=00:00:05.44 bitrate=3763.7kbits/s speed=0.0694x    frame=  348 fps=4.4 q=54.0 size=    2500kB time=00:00:05.50 bitrate=3722.7kbits/s speed=0.0691x    frame=  350 fps=4.4 q=54.0 size=    2500kB time=00:00:05.54 bitrate=3695.8kbits/s speed=0.0691x    frame=  353 fps=4.4 q=54.0 size=    2500kB time=00:00:05.60 bitrate=3656.2kbits/s speed=0.0694x    frame=  355 fps=4.4 q=54.0 size=    2500kB time=00:00:05.64 bitrate=3630.3kbits/s speed=0.0693x    frame=  357 fps=4.3 q=54.0 size=    2500kB time=00:00:05.68 bitrate=3604.7kbits/s speed=0.0692x    frame=  361 fps=4.3 q=54.0 size=    2500kB time=00:00:05.76 bitrate=3554.6kbits/s speed=0.0694x    frame=  363 fps=4.3 q=54.0 size=    2500kB time=00:00:05.80 bitrate=3530.1kbits/s speed=0.0694x    frame=  365 fps=4.3 q=54.0 size=    2500kB time=00:00:05.84 bitrate=3506.0kbits/s speed=0.0693x    frame=  369 fps=4.3 q=54.0 size=    2500kB time=00:00:05.92 bitrate=3458.6kbits/s speed=0.0693x    frame=  373 fps=4.3 q=54.0 size=    2500kB time=00:00:06.00 bitrate=3412.5kbits/s speed=0.0696x    frame=  375 fps=4.3 q=54.0 size=    2500kB time=00:00:06.04 bitrate=3389.9kbits/s speed=0.0697x    frame=  377 fps=4.3 q=54.0 size=    2500kB time=00:00:06.08 bitrate=3367.6kbits/s speed=0.0695x    frame=  380 fps=4.3 q=54.0 size=    2500kB time=00:00:06.14 bitrate=3334.7kbits/s speed=0.0694x    frame=  384 fps=4.3 q=54.0 size=    2500kB time=00:00:06.22 bitrate=3291.8kbits/s speed=0.0699x    frame=  386 fps=4.3 q=54.0 size=    2500kB time=00:00:06.26 bitrate=3270.8kbits/s speed=0.0694x    frame=  390 fps=4.3 q=54.0 size=    2500kB time=00:00:06.34 bitrate=3229.5kbits/s speed=0.0697x    frame=  392 fps=4.3 q=54.0 size=    2500kB time=00:00:06.38 bitrate=3209.3kbits/s speed=0.0697x    frame=  394 fps=4.3 q=54.0 size=    2500kB time=00:00:06.42 bitrate=3189.3kbits/s speed=0.0695x    frame=  398 fps=4.3 q=54.0 size=    2500kB time=00:00:06.50 bitrate=3150.0kbits/s speed=0.0698x    frame=  399 fps=4.3 q=54.0 size=    2500kB time=00:00:06.52 bitrate=3140.4kbits/s speed=0.0695x    frame=  403 fps=4.3 q=54.0 size=    2500kB time=00:00:06.60 bitrate=3102.3kbits/s speed=0.0698x    frame=  405 fps=4.3 q=54.0 size=    2500kB time=00:00:06.64 bitrate=3083.6kbits/s speed=0.0698x    frame=  406 fps=4.2 q=54.0 size=    2500kB time=00:00:06.66 bitrate=3074.4kbits/s speed=0.0696x    frame=  408 fps=4.2 q=54.0 size=    2500kB time=00:00:06.70 bitrate=3056.0kbits/s speed=0.0696x    frame=  412 fps=4.2 q=54.0 size=    2500kB time=00:00:06.78 bitrate=3020.0kbits/s speed=0.0698x    frame=  414 fps=4.2 q=54.0 size=    2500kB time=00:00:06.82 bitrate=3002.2kbits/s speed=0.0698x    frame=  415 fps=4.2 q=54.0 size=    2500kB time=00:00:06.84 bitrate=2993.5kbits/s speed=0.0696x    frame=  419 fps=4.2 q=54.0 size=    2500kB time=00:00:06.92 bitrate=2958.9kbits/s speed=0.0699x    frame=  422 fps=4.2 q=54.0 size=    2500kB time=00:00:06.98 bitrate=2933.4kbits/s speed=0.07x    frame=  423 fps=4.2 q=54.0 size=    2500kB time=00:00:07.00 bitrate=2925.1kbits/s speed=0.0698x    frame=  425 fps=4.2 q=54.0 size=    2500kB time=00:00:07.04 bitrate=2908.4kbits/s speed=0.0698x    frame=  428 fps=4.2 q=54.0 size=    2500kB time=00:00:07.10 bitrate=2883.9kbits/s speed=0.0698x    frame=  432 fps=4.2 q=54.0 size=    2500kB time=00:00:07.18 bitrate=2851.7kbits/s speed=0.0698x    frame=  436 fps=4.2 q=54.0 size=    2500kB time=00:00:07.26 bitrate=2820.3kbits/s speed=0.0699x    frame=  440 fps=4.2 q=54.0 size=    2500kB time=00:00:07.34 bitrate=2789.6kbits/s speed=0.0702x    frame=  442 fps=4.2 q=54.0 size=    2500kB time=00:00:07.38 bitrate=2774.5kbits/s speed=0.0701x    frame=  443 fps=4.2 q=54.0 size=    2500kB time=00:00:07.40 bitrate=2767.0kbits/s speed=0.0698x    frame=  447 fps=4.2 q=54.0 size=    2500kB time=00:00:07.48 bitrate=2737.4kbits/s speed=0.0702x    frame=  449 fps=4.2 q=54.0 size=    2500kB time=00:00:07.52 bitrate=2722.8kbits/s speed=0.07x    frame=  450 fps=4.2 q=54.0 size=    2500kB time=00:00:07.54 bitrate=2715.6kbits/s speed=0.0698x    frame=  454 fps=4.2 q=54.0 size=    2500kB time=00:00:07.62 bitrate=2687.1kbits/s speed=0.0702x    frame=  455 fps=4.2 q=54.0 size=    2500kB time=00:00:07.64 bitrate=2680.1kbits/s speed=0.0699x    frame=  459 fps=4.2 q=54.0 size=    2500kB time=00:00:07.72 bitrate=2652.3kbits/s speed=0.07x    frame=  462 fps=4.2 q=54.0 size=    2500kB time=00:00:07.78 bitrate=2631.8kbits/s speed=0.0699x    frame=  465 fps=4.2 q=54.0 size=    2500kB time=00:00:07.84 bitrate=2611.7kbits/s speed=0.0701x    frame=  466 fps=4.1 q=54.0 size=    2500kB time=00:00:07.86 bitrate=2605.1kbits/s speed=0.0699x    frame=  468 fps=4.1 q=54.0 size=    2500kB time=00:00:07.90 bitrate=2591.9kbits/s speed=0.0699x    frame=  471 fps=4.1 q=54.0 size=    2500kB time=00:00:07.96 bitrate=2572.3kbits/s speed=0.0699x    frame=  475 fps=4.1 q=54.0 size=    2500kB time=00:00:08.04 bitrate=2546.7kbits/s speed=0.0699x    frame=  477 fps=4.1 q=54.0 size=    2500kB time=00:00:08.08 bitrate=2534.1kbits/s speed=0.0698x    frame=  481 fps=4.1 q=54.0 size=    2500kB time=00:00:08.16 bitrate=2509.3kbits/s speed=0.0701x    frame=  483 fps=4.1 q=54.0 size=    2500kB time=00:00:08.20 bitrate=2497.1kbits/s speed=0.0698x    frame=  486 fps=4.1 q=54.0 size=    2500kB time=00:00:08.26 bitrate=2478.9kbits/s speed=0.07x    frame=  489 fps=4.1 q=54.0 size=    2500kB time=00:00:08.32 bitrate=2461.0kbits/s speed=0.0701x    frame=  491 fps=4.1 q=54.0 size=    2500kB time=00:00:08.36 bitrate=2449.3kbits/s speed=0.07x    frame=  493 fps=4.1 q=54.0 size=    2500kB time=00:00:08.40 bitrate=2437.6kbits/s speed=0.0698x    frame=  497 fps=4.1 q=54.0 size=    2500kB time=00:00:08.48 bitrate=2414.6kbits/s speed=0.07x    frame=  499 fps=4.1 q=54.0 size=    2500kB time=00:00:08.52 bitrate=2403.3kbits/s speed=0.0699x    frame=  500 fps=4.1 q=54.0 size=    2500kB time=00:00:08.54 bitrate=2397.6kbits/s speed=0.0697x    frame=  500 fps=3.6 q=-1.0 Lsize=    5042kB time=00:00:09.94 bitrate=4155.0kbits/s speed=0.0707x    
video:5038kB audio:0kB subtitle:0kB other streams:0kB global headers:0kB muxing overhead: 0.086283%
bench: utime=527.996s
bench: maxrss=2505664kB
[libx264 @ 0x36341c0] frame I:2     Avg QP:43.36  size:143938
[libx264 @ 0x36341c0] frame P:134   Avg QP:50.81  size: 19986
[libx264 @ 0x36341c0] frame B:364   Avg QP:50.90  size:  6022
[libx264 @ 0x36341c0] consecutive B-frames:  0.4%  2.8% 14.4% 82.4%
[libx264 @ 0x36341c0] mb I  I16..4: 27.4% 69.7%  2.9%
[libx264 @ 0x36341c0] mb P  I16..4:  7.3%  4.6%  0.0%  P16..4: 20.9%  0.5%  1.6%  0.0%  0.0%    skip:65.1%
[libx264 @ 0x36341c0] mb B  I16..4:  0.0%  0.0%  0.0%  B16..8: 19.3%  0.1%  0.0%  direct: 0.1%  skip:80.4%  L0:35.6% L1:64.4% BI: 0.0%
[libx264 @ 0x36341c0] final ratefactor: 46.34
[libx264 @ 0x36341c0] 8x8 transform intra:42.1% inter:96.1%
[libx264 @ 0x36341c0] direct mvs  spatial:98.9% temporal:1.1%
[libx264 @ 0x36341c0] coded y,uvDC,uvAC intra: 7.0% 33.4% 2.0% inter: 0.3% 2.4% 0.0%
[libx264 @ 0x36341c0] i16 v,h,dc,p: 58% 21%  4% 16%
[libx264 @ 0x36341c0] i8 v,h,dc,ddl,ddr,vr,hd,vl,hu:  8%  3% 63%  5%  5%  5%  5%  3%  3%
[libx264 @ 0x36341c0] i4 v,h,dc,ddl,ddr,vr,hd,vl,hu:  7%  4%  2% 15% 17% 15% 14% 11% 15%
[libx264 @ 0x36341c0] i8c dc,h,v,p: 81%  8%  8%  2%
[libx264 @ 0x36341c0] Weighted P-Frames: Y:0.7% UV:0.0%
[libx264 @ 0x36341c0] ref P L0: 58.6%  0.7% 18.0%  5.8%  5.1%  4.5%  4.6%  2.5%  0.0%
[libx264 @ 0x36341c0] ref B L0: 92.2%  3.6%  1.9%  0.8%  0.7%  0.5%  0.4%
[libx264 @ 0x36341c0] ref B L1: 99.0%  1.0%
[libx264 @ 0x36341c0] kb/s:4126.34
